<svg xmlns:dc="http://purl.org/dc/elements/1.1/" xmlns:cc="http://creativecommons.org/ns#" xmlns:rdf="http://www.w3.org/1999/02/22-rdf-syntax-ns#" xmlns:svg="http://www.w3.org/2000/svg" xmlns="http://www.w3.org/2000/svg" xmlns:sodipodi="http://sodipodi.sourceforge.net/DTD/sodipodi-0.dtd" xmlns:inkscape="http://www.inkscape.org/namespaces/inkscape" viewBox="0 0 80 80" version="1.1" x="0px" y="0px"><path style="text-indent:0;text-transform:none;direction:ltr;block-progression:tb;baseline-shift:baseline;color:#1C2529;enable-background:accumulate;" d="m 42.932021,17.99371 c -8.05438,-0.0794 -15.89293,4.53315 -19.28409,12.28496 -4.42726,10.12023 0.24718,22.32436 10.3975,26.76332 9.93653,4.34545 21.91675,-0.24281 26.2738,-10.20923 3.18941,-7.29551 1.47136,-15.7111 -3.69019,-21.2798 -0.7055,-0.72035 -1.62642,-1.60224 -2.03808,-1.90628 -0.0126,-0.009 -0.025,-0.019 -0.0377,-0.0282 -1.2772,-1.02339 -2.70016,-1.8931 -4.25972,-2.57466 -9.5737,-4.18392 -21.11828,0.23892 -25.3136,9.84209 -0.24296,0.55613 -0.45569,1.1173 -0.64014,1.68506 -0.0103,0.0317 -0.0228,0.0624 -0.0329,0.0941 -2.47116,6.84669 -0.76566,14.54134 4.0385,19.75948 -5.54201,-5.60269 -7.46463,-14.35852 -4.16088,-21.91053 4.38959,-10.03412 16.4736,-14.6591 26.4809,-10.27982 10.22109,4.47283 14.93521,16.7811 10.47281,26.97512 -4.55676,10.40957 -17.0965,15.20731 -27.47876,10.66109 -2.06997,-0.90641 -3.98988,-2.14749 -5.66709,-3.66196 l -0.39067,0.43774 c 1.72424,1.55693 3.69419,2.8336 5.82241,3.76551 1.43979,0.63046 2.92073,1.08382 4.41505,1.37441 C 30.971131,59.31082 18.613281,56.02058 3.3565708,40.99624 L 0.97960082,42.00352 C 21.915141,62.62019 39.577051,60.75723 43.129711,60.20031 l 0.58225,-0.0786 c 7.83117,-0.4431 14.64826,-5.10513 17.96285,-12.67705 4.59292,-10.49217 -0.25137,-23.14696 -10.77405,-27.75176 -2.57636,-1.12744 -5.28395,-1.67272 -7.96874,-1.69919 z m 0.17415,2.37698 c 2.7683,0.0199 5.55588,0.6333 8.16644,1.90158 0.70128,0.3407 1.38355,0.72624 2.03808,1.14848 0.0125,0.008 0.0252,0.0154 0.0377,0.0235 0.006,0.005 0.0125,0.01 0.0188,0.0141 5.38419,3.84281 8.35014,10.35326 7.92638,16.87416 0.15492,-6.34357 -2.92711,-12.60351 -8.40648,-16.18225 -0.007,-0.004 -0.0123,-0.01 -0.0188,-0.0141 -0.97453,-0.69443 -2.0293,-1.29858 -3.16302,-1.79332 -8.86638,-3.86916 -19.55069,0.22693 -23.43085,9.12193 -0.0483,0.11075 -0.0954,0.22289 -0.14121,0.33419 -0.0104,0.0252 -0.0227,0.0501 -0.0329,0.0753 -2.65881,5.89081 -1.80448,12.66903 1.72271,17.73552 -3.81731,-5.02627 -4.97471,-11.93332 -2.48523,-18.06029 0.0147,-0.0362 0.0321,-0.0721 0.0471,-0.10826 0.0661,-0.14444 0.13695,-0.28968 0.2071,-0.43304 3.22386,-6.58729 9.97475,-10.48406 16.95889,-10.63284 0.1843,-0.004 0.37086,-0.006 0.55541,-0.005 z m -0.12238,1.3697 c 2.5959,0.006 5.21843,0.57196 7.66751,1.76037 0.33402,0.16209 0.65972,0.33249 0.97903,0.51305 4.95089,3.07341 7.9521,8.48222 8.24645,14.14888 -0.56504,-5.81112 -4.01707,-11.25618 -9.58791,-13.9559 -8.32733,-4.03554 -18.70952,-0.55076 -22.77188,7.77106 -2.41303,4.94314 -2.09701,10.62715 0.36243,15.21734 -2.72495,-4.56197 -3.31081,-10.35462 -1.06846,-15.49504 0.089,-0.20401 0.18139,-0.40374 0.2777,-0.60248 3.15489,-5.93143 9.44853,-9.3711 15.89513,-9.35728 z m -0.0282,1.32734 c 2.40178,0.005 4.82696,0.53029 7.09327,1.62858 8.24155,3.99397 11.69976,14.20824 7.70045,22.39533 -1.15015,2.3545 -2.80235,4.32523 -4.77277,5.85065 -0.0875,0.0661 -0.17499,0.1332 -0.26359,0.19769 -0.0233,0.0173 -0.0472,0.0346 -0.0706,0.0518 -2.18919,1.57744 -4.72021,2.65016 -7.37097,3.14419 -0.0142,0.003 -0.0281,0.007 -0.0424,0.009 -0.0474,0.008 -0.0938,0.0157 -0.14121,0.0235 -0.0947,0.0166 -0.18741,0.0319 -0.28241,0.0471 -0.0423,0.006 -0.0847,0.0128 -0.12709,0.0188 -3.28255,0.46375 -6.71835,0.004 -9.86091,-1.52032 -4.63047,-2.24549 -7.80426,-6.38048 -9.08899,-11.05176 1.49226,4.57523 4.81554,8.53643 9.49378,10.57636 2.13048,0.92899 4.36602,1.37831 6.58492,1.39794 0.005,1.3e-4 0.009,-1.2e-4 0.0141,0 4.70976,0.12178 9.36656,-1.7718 12.60032,-5.23875 0.005,-0.005 0.01,-0.009 0.0141,-0.0141 0.0415,-0.0428 0.0813,-0.0885 0.12238,-0.1318 0.78295,-0.76444 2.25323,-2.70814 3.01711,-4.8575 2.97872,-7.60493 -0.37277,-16.60681 -7.8699,-20.23487 -7.69959,-3.72604 -17.28848,-0.50362 -21.03975,7.19211 l 0.4848,0.23535 c 3.61878,-7.42391 12.89408,-10.54305 20.32431,-6.94736 7.60735,3.6814 10.7981,13.11641 7.1121,20.67262 -0.34862,0.71465 -0.7478,1.39262 -1.19085,2.02866 -0.006,0.009 -0.0123,0.019 -0.0188,0.0282 -3.62894,4.88158 -9.81868,7.38731 -15.81512,6.50491 -0.011,-0.002 -0.0219,-0.003 -0.0329,-0.005 -1.40447,-0.24378 -2.79268,-0.67828 -4.12322,-1.32263 -7.92168,-3.8363 -11.24048,-13.66509 -7.39922,-21.53397 2.82451,-5.78605 8.81118,-9.15696 14.94905,-9.14547 z m 16.73767,10.64696 c 1.57455,4.45175 1.4586,9.50077 -0.73428,13.98414 -4.41708,9.0308 -15.71244,12.81512 -24.75348,8.42531 -4.61708,-2.24179 -7.89036,-6.22596 -9.45141,-10.79758 1.75647,4.49935 5.1936,8.34219 9.88915,10.39279 9.21697,4.02516 20.32646,-0.23363 24.36281,-9.47965 1.77519,-4.0664 1.90511,-8.50768 0.68721,-12.52501 z" fill="#1C2529" fill-opacity="1" stroke="none" marker="none" visibility="visible" display="inline" overflow="visible"></path><path style="text-indent:0;text-transform:none;direction:ltr;block-progression:tb;baseline-shift:baseline;color:#1C2529;enable-background:accumulate;" d="m 16.728531,11.79686 c -1.72843,15.59186 0.32435,33.22768 11.40218,43.30973 l 0.39538,-0.43774 C 16.653921,42.59884 17.926481,24.90551 19.470051,12.081 z" fill="#1C2529" fill-opacity="1" stroke="none" marker="none" visibility="visible" display="inline" overflow="visible"></path><path style="text-indent:0;text-transform:none;direction:ltr;block-progression:tb;baseline-shift:baseline;color:#1C2529;enable-background:accumulate;" d="M 34.522651,4.1310804 C 25.430571,17.6137 18.054071,32.26965 23.828621,46.89308 l 0.546,-0.21652 c -6.52455,-15.87486 5.96559,-31.1118 13.00423,-41.9469796 z" fill="#1C2529" fill-opacity="1" stroke="none" marker="none" visibility="visible" display="inline" overflow="visible"></path><path style="text-indent:0;text-transform:none;direction:ltr;block-progression:tb;baseline-shift:baseline;color:#1C2529;enable-background:accumulate;" d="M 65.115381,7.5359504 C 35.894441,10.61501 26.774811,24.66164 24.948861,27.75962 l 0.50363,0.30124 c 1.76316,-2.99143 10.7999,-14.79055 39.86329,-17.853 z" fill="#1C2529" fill-opacity="1" stroke="none" marker="none" visibility="visible" display="inline" overflow="visible"></path><path style="text-indent:0;text-transform:none;direction:ltr;block-progression:tb;baseline-shift:baseline;color:#1C2529;enable-background:accumulate;" d="m 37.972791,18.50589 0.0941,0.57895 c 15.18937,-3.28891 29.19101,5.82187 39.020032,12.798 L 79.379561,30.289 C 66.712051,20.59453 52.581621,16.06486 37.972751,18.50589 z" fill="#1C2529" fill-opacity="1" stroke="none" marker="none" visibility="visible" display="inline" overflow="visible"></path><path style="color:#1C2529;enable-background:accumulate;" d="m 58.246751,39.52295 c 0,8.71005 -7.02718,15.77093 -15.69563,15.77093 -8.66846,0 -15.69563,-7.06088 -15.69563,-15.77093 0,-8.71005 7.02717,-15.77094 15.69563,-15.77094 8.66845,0 15.69563,7.06089 15.69563,15.77094 z" fill="#1C2529" fill-opacity="1" fill-rule="nonzero" stroke="none" marker="none" visibility="visible" display="inline" overflow="visible"></path><path style="text-indent:0;text-transform:none;direction:ltr;block-progression:tb;baseline-shift:baseline;color:#1C2529;enable-background:accumulate;" d="m 50.902591,19.68732 -0.17415,0.56482 c 16.44723,4.89241 19.662786,24.60139 23.673755,36.88151 L 77.46822,54.86654 C 72.685398,39.32546 65.907491,24.37695 50.902591,19.68732 z" fill="#1C2529" fill-opacity="1" stroke="none" marker="none" visibility="visible" display="inline" overflow="visible"></path><path style="text-indent:0;text-transform:none;direction:ltr;block-progression:tb;baseline-shift:baseline;color:#1C2529;enable-background:accumulate;" d="m 62.377101,32.68301 -0.44629,0.2071 c 1.22062,3.25076 5.65999,18.08989 -10.20922,42.63021 l 3.27385,0.45458 c 15.95524,-24.67335 8.64576,-39.92534 7.38166,-43.29189 z" fill="#1C2529" fill-opacity="1" stroke="none" marker="none" visibility="visible" display="inline" overflow="visible"></path><path style="text-indent:0;text-transform:none;direction:ltr;block-progression:tb;baseline-shift:baseline;color:#1C2529;enable-background:accumulate;" d="m 59.520581,50.45762 c -7.94436,13.35968 -21.81111,16.28924 -33.61495,18.72846 l 0.40428,3.71035 c 15.2469,-2.6952 25.49317,-10.03166 33.54978,-22.23952 z" fill="#1C2529" fill-opacity="1" stroke="none" marker="none" visibility="visible" display="inline" overflow="visible"></path><path style="text-indent:0;text-transform:none;direction:ltr;block-progression:tb;baseline-shift:baseline;color:#1C2529;enable-background:accumulate;" d="m 61.439471,1.5996504 c -1.38893,0 -2.52289,1.12925 -2.52289,2.51818 0,1.38893 1.13396,2.52289 2.52289,2.52289 1.38893,0 2.51818,-1.13396 2.51818,-2.52289 0,-1.38893 -1.12925,-2.51818 -2.51818,-2.51818 z m 0,0.58365 c 1.07146,0 1.93453,0.86307 1.93453,1.93453 0,1.07147 -0.86307,1.93453 -1.93453,1.93453 -1.07147,0 -1.93453,-0.86306 -1.93453,-1.93453 0,-1.07146 0.86306,-1.93453 1.93453,-1.93453 z" fill="#1C2529" fill-opacity="1" stroke="none" marker="none" visibility="visible" display="inline" overflow="visible"></path><path style="text-indent:0;text-transform:none;direction:ltr;block-progression:tb;baseline-shift:baseline;color:#1C2529;enable-background:accumulate;" d="m 7.1675308,37.58841 c -1.38893,0 -2.52288,1.13395 -2.52288,2.52288 0,1.38893 1.13395,2.52289 2.52288,2.52289 1.38894,0 2.52289,-1.13396 2.52289,-2.52289 0,-1.38893 -1.13395,-2.52288 -2.52289,-2.52288 z m 0,0.58836 c 1.07147,0 1.93453,0.86306 1.93453,1.93452 0,1.07147 -0.86306,1.93453 -1.93453,1.93453 -1.07146,0 -1.93452,-0.86306 -1.93452,-1.93453 0,-1.07146 0.86306,-1.93452 1.93452,-1.93452 z" fill="#1C2529" fill-opacity="1" stroke="none" marker="none" visibility="visible" display="inline" overflow="visible"></path><path style="text-indent:0;text-transform:none;direction:ltr;block-progression:tb;baseline-shift:baseline;color:#1C2529;enable-background:accumulate;" d="m 54.798731,12.23048 c -0.81227,0 -1.47796,0.66097 -1.47796,1.47325 0,0.81227 0.66569,1.47796 1.47796,1.47796 0.81228,0 1.47797,-0.66569 1.47797,-1.47796 0,-0.81228 -0.66569,-1.47325 -1.47797,-1.47325 z m 0,0.58365 c 0.49481,0 0.88961,0.39479 0.88961,0.8896 0,0.49481 -0.3948,0.8896 -0.88961,0.8896 -0.4948,0 -0.8896,-0.39479 -0.8896,-0.8896 0,-0.49481 0.3948,-0.8896 0.8896,-0.8896 z" fill="#1C2529" fill-opacity="1" stroke="none" marker="none" visibility="visible" display="inline" overflow="visible"></path><path style="text-indent:0;text-transform:none;direction:ltr;block-progression:tb;baseline-shift:baseline;color:#1C2529;enable-background:accumulate;" d="m 29.775621,17.17015 c -0.81228,0 -1.47326,0.66568 -1.47326,1.47796 0,0.81227 0.66098,1.47796 1.47326,1.47796 0.81227,0 1.47796,-0.66569 1.47796,-1.47796 0,-0.81228 -0.66569,-1.47796 -1.47796,-1.47796 z m 0,0.58836 c 0.49481,0 0.8896,0.39479 0.8896,0.8896 0,0.49481 -0.39479,0.8896 -0.8896,0.8896 -0.49481,0 -0.8896,-0.39479 -0.8896,-0.8896 0,-0.49481 0.39479,-0.8896 0.8896,-0.8896 z" fill="#1C2529" fill-opacity="1" stroke="none" marker="none" visibility="visible" display="inline" overflow="visible"></path><path style="text-indent:0;text-transform:none;direction:ltr;block-progression:tb;baseline-shift:baseline;color:#1C2529;enable-background:accumulate;" d="m 18.286801,39.85246 c -0.81228,0 -1.47796,0.66569 -1.47796,1.47796 0,0.81228 0.66568,1.47325 1.47796,1.47325 0.81227,0 1.47796,-0.66097 1.47796,-1.47325 0,-0.81227 -0.66569,-1.47796 -1.47796,-1.47796 z m 0,0.58836 c 0.49481,0 0.8896,0.39479 0.8896,0.8896 0,0.49481 -0.39479,0.8896 -0.8896,0.8896 -0.49481,0 -0.8896,-0.39479 -0.8896,-0.8896 0,-0.49481 0.39479,-0.8896 0.8896,-0.8896 z" fill="#1C2529" fill-opacity="1" stroke="none" marker="none" visibility="visible" display="inline" overflow="visible"></path><path style="text-indent:0;text-transform:none;direction:ltr;block-progression:tb;baseline-shift:baseline;color:#1C2529;enable-background:accumulate;" d="m 12.389081,16.56282 c -1.31205,0 -2.38169,1.06964 -2.38169,2.38168 0,1.31205 1.06964,2.38168 2.38169,2.38168 1.31204,0 2.38168,-1.06963 2.38168,-2.38168 0,-1.31204 -1.06964,-2.38168 -2.38168,-2.38168 z m 0,0.58836 c 0.99457,0 1.79802,0.79874 1.79802,1.79332 0,0.99458 -0.80345,1.79332 -1.79802,1.79332 -0.99458,0 -1.79333,-0.79874 -1.79333,-1.79332 0,-0.99458 0.79875,-1.79332 1.79333,-1.79332 z" fill="#1C2529" fill-opacity="1" stroke="none" marker="none" visibility="visible" display="inline" overflow="visible"></path><path style="text-indent:0;text-transform:none;direction:ltr;block-progression:tb;baseline-shift:baseline;color:#1C2529;enable-background:accumulate;" d="m 71.611036,26.93678 c -0.812276,0 -1.477961,0.66569 -1.477961,1.47796 0,0.81228 0.665685,1.47796 1.477961,1.47796 0.812275,0 1.47796,-0.66568 1.47796,-1.47796 0,-0.81227 -0.665685,-1.47796 -1.47796,-1.47796 z m 0,0.58836 c 0.494811,0 0.8896,0.39479 0.8896,0.8896 0,0.49481 -0.394789,0.8896 -0.8896,0.8896 -0.49481,0 -0.889601,-0.39479 -0.889601,-0.8896 0,-0.49481 0.394791,-0.8896 0.889601,-0.8896 z" fill="#1C2529" fill-opacity="1" stroke="none" marker="none" visibility="visible" display="inline" overflow="visible"></path><path style="text-indent:0;text-transform:none;direction:ltr;block-progression:tb;baseline-shift:baseline;color:#1C2529;enable-background:accumulate;" d="m 62.107841,30.17982 c -0.3771,0 -0.70899,0.21417 -0.87547,0.52717 l 0.66837,1.42619 c 0.0673,0.0147 0.13561,0.0235 0.2071,0.0235 0.54317,0 0.98845,-0.44527 0.98845,-0.98844 0,-0.54317 -0.44528,-0.98845 -0.98845,-0.98845 z m 0,0.58366 c 0.22571,0 0.40009,0.17908 0.40009,0.40479 0,0.2257 -0.17438,0.40008 -0.40009,0.40008 -0.2257,0 -0.40479,-0.17438 -0.40479,-0.40008 0,-0.22571 0.17909,-0.40479 0.40479,-0.40479 z" fill="#1C2529" fill-opacity="1" stroke="none" marker="none" visibility="visible" display="inline" overflow="visible"></path><path style="text-indent:0;text-transform:none;direction:ltr;block-progression:tb;baseline-shift:baseline;color:#1C2529;enable-background:accumulate;" d="m 70.523746,50.80066 c -1.196712,0 -2.174578,0.97316 -2.174578,2.16987 0,1.19672 0.977866,2.17458 2.174578,2.17458 1.196711,0 2.169872,-0.97786 2.169872,-2.17458 0,-1.19671 -0.973161,-2.16987 -2.169872,-2.16987 z m 0,0.58366 c 0.879247,0 1.586219,0.70697 1.586219,1.58621 0,0.87925 -0.706972,1.58622 -1.586219,1.58622 -0.879248,0 -1.586218,-0.70697 -1.586218,-1.58622 0,-0.87924 0.70697,-1.58621 1.586218,-1.58621 z" fill="#1C2529" fill-opacity="1" stroke="none" marker="none" visibility="visible" display="inline" overflow="visible"></path><path style="text-indent:0;text-transform:none;direction:ltr;block-progression:tb;baseline-shift:baseline;color:#1C2529;enable-background:accumulate;" d="m 29.969271,71.50623 c -1.19671,0 -2.16987,0.97786 -2.16987,2.17457 0,1.19672 0.97316,2.17458 2.16987,2.17458 1.19671,0 2.17458,-0.97786 2.17458,-2.17458 0,-1.19671 -0.97787,-2.17457 -2.17458,-2.17457 z m 0,0.58836 c 0.87925,0 1.58622,0.70697 1.58622,1.58621 0,0.87925 -0.70697,1.58622 -1.58622,1.58622 -0.87925,0 -1.58622,-0.70697 -1.58622,-1.58622 0,-0.87924 0.70697,-1.58621 1.58622,-1.58621 z" fill="#1C2529" fill-opacity="1" stroke="none" marker="none" visibility="visible" display="inline" overflow="visible"></path><path style="text-indent:0;text-transform:none;direction:ltr;block-progression:tb;baseline-shift:baseline;color:#1C2529;enable-background:accumulate;" d="m 40.955131,62.74672 c -0.92761,0 -1.68506,0.75746 -1.68506,1.68507 0,0.9276 0.75745,1.68977 1.68506,1.68977 0.9276,0 1.68506,-0.76217 1.68506,-1.68977 0,-0.92761 -0.75746,-1.68507 -1.68506,-1.68507 z m 0,0.58836 c 0.61014,0 1.0967,0.48656 1.0967,1.09671 0,0.61014 -0.48656,1.10141 -1.0967,1.10141 -0.61014,0 -1.0967,-0.49127 -1.0967,-1.10141 0,-0.61015 0.48656,-1.09671 1.0967,-1.09671 z" fill="#1C2529" fill-opacity="1" stroke="none" marker="none" visibility="visible" display="inline" overflow="visible"></path><path style="text-indent:0;text-transform:none;direction:ltr;block-progression:tb;baseline-shift:baseline;color:#1C2529;enable-background:accumulate;" d="m 56.911451,63.84343 c -0.92761,0 -1.68506,0.75745 -1.68506,1.68506 0,0.9276 0.75745,1.68977 1.68506,1.68977 0.92761,0 1.68506,-0.76217 1.68506,-1.68977 0,-0.92761 -0.75745,-1.68506 -1.68506,-1.68506 z m 0,0.58836 c 0.61014,0 1.0967,0.48656 1.0967,1.0967 0,0.61014 -0.48656,1.10141 -1.0967,1.10141 -0.61014,0 -1.0967,-0.49127 -1.0967,-1.10141 0,-0.61014 0.48656,-1.0967 1.0967,-1.0967 z" fill="#1C2529" fill-opacity="1" stroke="none" marker="none" visibility="visible" display="inline" overflow="visible"></path></svg>
